<?xml version="1.0" standalone="no"?>
<!DOCTYPE svg PUBLIC "-//W3C//DTD SVG 20010904//EN" "http://www.w3.org/TR/2001/REC-SVG-20010904/DTD/svg10.dtd">
<svg version="1.0" xmlns="http://www.w3.org/2000/svg" width="25px" height="25px" viewBox="0 0 512.000000 512.000000"
    preserveAspectRatio="xMidYMid meet">

    <g transform="translate(0.000000,512.000000) scale(0.100000,-0.100000)" fill="#fff" stroke="none">
        <path d="M3735 5105 c-17 -8 -587 -572 -1267 -1253 -913 -914 -1237 -1244
-1240 -1264 -3 -16 -3 -40 0 -56 3 -20 328 -351 1245 -1269 683 -683 1254
-1247 1269 -1254 72 -30 148 26 148 109 l0 47 -1197 1197 -1198 1198 1198
1198 c902 903 1197 1203 1199 1222 3 52 -4 76 -31 103 -33 34 -85 43 -126 22z" />
    </g>
</svg>