<?xml version="1.0" standalone="no"?>
<!DOCTYPE svg PUBLIC "-//W3C//DTD SVG 20010904//EN" "http://www.w3.org/TR/2001/REC-SVG-20010904/DTD/svg10.dtd">
<svg version="1.0" xmlns="http://www.w3.org/2000/svg" width="25px" height="25px" viewBox="0 0 512.000000 512.000000"
    preserveAspectRatio="xMidYMid meet">

    <g transform="translate(0.000000,512.000000) scale(0.100000,-0.100000)" fill="#fff" stroke="none">
        <path d="M1294 5110 c-38 -15 -64 -59 -64 -109 l0 -46 1197 -1197 1198 -1198
-1198 -1198 c-902 -903 -1197 -1203 -1199 -1222 -3 -51 4 -76 29 -102 34 -36
81 -45 125 -24 19 9 573 556 1269 1253 914 915 1238 1245 1241 1265 3 16 3 40
0 56 -3 20 -327 350 -1241 1265 -680 681 -1248 1245 -1263 1253 -30 16 -62 17
-94 4z" />
    </g>
</svg>